<?xml version="1.0" encoding="UTF-8"?>
<svg width="19px" height="19px" viewBox="0 0 19 19" version="1.1" xmlns="http://www.w3.org/2000/svg" xmlns:xlink="http://www.w3.org/1999/xlink">
    <!-- Generator: Sketch 49 (51002) - http://www.bohemiancoding.com/sketch -->
    <title>person</title>
    <desc>Created with Sketch.</desc>
    <defs></defs>
    <g id="Home---Sysadmin" stroke="none" stroke-width="1" fill="none" fill-rule="evenodd">
        <g id="Desktop" transform="translate(-827.000000, -151.000000)" fill="#FFFFFF" fill-rule="nonzero">
            <g id="User-popover" transform="translate(812.000000, 60.000000)">
                <g id="Group-2-Copy" transform="translate(15.000000, 89.000000)">
                    <g id="person" transform="translate(0.000000, 2.000000)">
                        <path d="M19,19 C19,19 19,17.69375 18.8911458,17.0109375 C18.8020833,16.4716146 18.0549479,15.7591146 14.8783854,14.5914063 C11.7513021,13.4434896 11.9442708,14.0026042 11.9442708,11.8898438 C11.9442708,10.5192708 12.6419271,11.3158854 13.0872396,8.71328125 C13.2604167,7.6890625 13.3989583,8.371875 13.775,6.72916667 C13.9729167,5.86822917 13.6414063,5.80390625 13.6809896,5.39322917 C13.7205729,4.98255208 13.7601563,4.61640625 13.834375,3.77526042 C13.9234375,2.73619792 12.9585938,0 9.5,0 C6.04140625,0 5.0765625,2.73619792 5.17057292,3.78020833 C5.24479167,4.61640625 5.284375,4.9875 5.32395833,5.39817708 C5.36354167,5.80885417 5.03203125,5.87317708 5.22994792,6.73411458 C5.60598958,8.371875 5.74453125,7.6890625 5.91770833,8.71822917 C6.36302083,11.3208333 7.06067708,10.5242188 7.06067708,11.8947917 C7.06067708,14.0125 7.25364583,13.4533854 4.1265625,14.5963542 C0.95,15.7591146 0.197916667,16.4765625 0.113802083,17.0158854 C0,17.69375 0,19 0,19 L9.5,19 L19,19 Z" id="Shape"></path>
                    </g>
                </g>
            </g>
        </g>
    </g>
</svg>