<?xml version="1.0" encoding="UTF-8"?>
<svg width="19px" height="19px" viewBox="0 0 19 19" version="1.1" xmlns="http://www.w3.org/2000/svg" xmlns:xlink="http://www.w3.org/1999/xlink">
    <!-- Generator: Sketch 49 (51002) - http://www.bohemiancoding.com/sketch -->
    <title>log-out</title>
    <desc>Created with Sketch.</desc>
    <defs></defs>
    <g id="Home---Sysadmin" stroke="none" stroke-width="1" fill="none" fill-rule="evenodd">
        <g id="Desktop" transform="translate(-827.000000, -186.000000)" fill="#FFFFFF" fill-rule="nonzero">
            <g id="User-popover" transform="translate(812.000000, 60.000000)">
                <g id="Group-2" transform="translate(15.000000, 124.000000)">
                    <g id="log-out" transform="translate(0.000000, 2.000000)">
                        <polygon id="Shape" points="14.2859583 13.0000221 15.22875 14 19 10 15.22875 6 14.2859167 7.0000221 16.4477083 9.29289581 7 9.29289581 7 10.7071042 16.4477083 10.7071042"></polygon>
                        <path d="M15.8770972,15.257933 C14.2755681,16.7958728 12.1463056,17.6428571 9.88141074,17.6428571 C7.6162951,17.6428571 5.4866792,16.7958728 3.88497343,15.2578906 C2.28322349,13.7199085 1.41329578,11.6750335 1.41329578,9.5 C1.41329578,7.32513616 2.28322349,5.28034598 3.88501759,3.74227902 C5.48676753,2.20421205 7.61633927,1.35714286 9.88141074,1.35714286 C12.1461731,1.35714286 14.2754798,2.20421205 15.8770972,3.74223661 C15.9887034,3.84945089 16.0964231,3.95942187 16.2009628,4.07142857 L17.9998675,4.07142857 C16.2123133,1.61041964 13.2428464,0 9.88141074,0 C4.41747678,0 0,4.25370982 0,9.5 C0,14.7468415 4.41747678,19 9.88141074,19 C13.2429347,19 16.2125342,17.3896652 18,14.9285714 L16.2011395,14.9285714 C16.0965556,15.0406629 15.9888359,15.1506339 15.8770972,15.257933 Z" id="Shape"></path>
                    </g>
                </g>
            </g>
        </g>
    </g>
</svg>