<?xml version="1.0" encoding="UTF-8"?>
<svg width="4px" height="16px" viewBox="0 0 4 16" version="1.1" xmlns="http://www.w3.org/2000/svg" xmlns:xlink="http://www.w3.org/1999/xlink">
    <!-- Generator: Sketch 49 (51002) - http://www.bohemiancoding.com/sketch -->
    <title>more</title>
    <desc>Created with Sketch.</desc>
    <defs></defs>
    <g id="Symbols" stroke="none" stroke-width="1" fill="none" fill-rule="evenodd">
        <g id="More-Button" transform="translate(-6.000000, 0.000000)" fill="#000000" fill-rule="nonzero">
            <g id="more" transform="translate(8.000000, 8.000000) rotate(-270.000000) translate(-8.000000, -8.000000) translate(0.000000, 6.000000)">
                <path d="M1.99798995,4 C0.892462312,4 0,3.10833333 0,2 C0,0.895833333 0.892462312,0 1.99798995,0 C3.10753769,0 4,0.895833333 4,2 C4,3.10833333 3.10753769,4 1.99798995,4 Z" id="Shape"></path>
                <path d="M8.00201005,4 C6.89648241,4 6,3.10833333 6,2 C6,0.895833333 6.89648241,0 8.00201005,0 C9.10753769,0 10,0.895833333 10,2 C10,3.10833333 9.10753769,4 8.00201005,4 Z" id="Shape"></path>
                <path d="M14,4 C12.8955823,4 12,3.10833333 12,2 C12,0.895833333 12.8915663,0 14,0 C15.1044177,0 16,0.895833333 16,2 C16,3.10833333 15.1084337,4 14,4 Z" id="Shape"></path>
            </g>
        </g>
    </g>
</svg>