<?xml version="1.0" encoding="UTF-8"?>
<svg width="249px" height="249px" viewBox="0 0 249 249" version="1.1" xmlns="http://www.w3.org/2000/svg" xmlns:xlink="http://www.w3.org/1999/xlink">
    <title>launch-icon</title>
    <g id="Home" stroke="none" stroke-width="1" fill="none" fill-rule="evenodd">
        <g id="Desktop-HD" transform="translate(-959.000000, -1223.000000)">
            <g id="launch-icon" transform="translate(959.000000, 1223.000000)">
                <circle id="Oval" fill="#FFFFFF" cx="124.5" cy="124.5" r="124.5"></circle>
                <path d="M186.143,63.743 C186.038829,63.2403354 185.65268,62.8436557 185.153,62.726 C168.839,58.736 131.153,72.953 110.714,93.377 C107.071319,96.9897714 103.7498,100.912556 100.787,105.101 C94.487,104.531 88.187,105.011 82.823,107.351 C67.676,114.011 63.269,131.405 62.039,138.872 C61.903925,139.701297 62.1626247,140.54621 62.7388521,141.157716 C63.3150795,141.769223 64.1431481,142.077615 64.979,141.992 L89.3,139.322 C89.3168256,141.156412 89.426968,142.988781 89.63,144.812 C89.7569273,146.072171 90.3191881,147.248675 91.22,148.139 L100.637,157.556 C101.528098,158.457438 102.705768,159.019749 103.967,159.146 C105.779258,159.348113 107.600593,159.458254 109.424,159.476 L106.757,183.776 C106.672611,184.610746 106.98107,185.437288 107.591702,186.012657 C108.202335,186.588027 109.045742,186.846834 109.874,186.713 C117.344,185.513 134.774,181.106 141.395,165.962 C143.735,160.592 144.215,154.325 143.675,148.055 C147.875797,145.094936 151.809773,141.773291 155.432,138.128 C175.946,117.728 190.073,80.87 186.143,63.743 Z M137.198,111.701 C133.533757,108.037597 132.43725,102.527557 134.419822,97.7404276 C136.402395,92.9532983 141.073572,89.8319244 146.255,89.8319244 C151.436428,89.8319244 156.107605,92.9532983 158.090178,97.7404276 C160.07275,102.527557 158.976243,108.037597 155.312,111.701 C152.911698,114.106387 149.653137,115.458148 146.255,115.458148 C142.856863,115.458148 139.598302,114.106387 137.198,111.701 L137.198,111.701 Z" id="Shape" stroke="#F12C5C" stroke-width="9.6" stroke-linecap="round" stroke-linejoin="round"></path>
                <path d="M80.492,153.2 C77.5013413,153.56712 74.7190635,154.922887 72.587,157.052 C67.301,162.356 66.8,182 66.8,182 C66.8,182 86.456,181.499 91.745,176.207 C93.8827324,174.078307 95.2407985,171.291365 95.6,168.296" id="Path" stroke="#F12C5C" stroke-width="9.6" stroke-linecap="round" stroke-linejoin="round"></path>
            </g>
        </g>
    </g>
</svg>