<?xml version="1.0" encoding="UTF-8"?>
<svg width="350px" height="73px" viewBox="0 0 350 73" version="1.1" xmlns="http://www.w3.org/2000/svg" xmlns:xlink="http://www.w3.org/1999/xlink">
    <!-- Generator: Sketch 49 (51002) - http://www.bohemiancoding.com/sketch -->
    <title>login-logo</title>
    <desc>Created with Sketch.</desc>
    <defs></defs>
    <g id="Sign-in" stroke="none" stroke-width="1" fill="none" fill-rule="evenodd">
        <g id="Desktop" transform="translate(-335.000000, -266.000000)" fill="#FFFFFF">
            <g id="login-logo" transform="translate(334.000000, 258.000000)">
                <g id="Koasta-Logo---Bold" transform="translate(0.000000, 7.000000)">
                    <g transform="translate(5.580000, 5.550000)" id="Shape">
                        <polygon fill-rule="nonzero" points="0 68.45 0 57.35 81.84 57.35 81.84 68.45"></polygon>
                        <polygon fill-rule="nonzero" points="40.92 32.197041 77.5655395 -4.25147952 86.1144605 4.25147952 40.92 49.202959 -4.27446049 4.25147952 4.27446049 -4.25147952"></polygon>
                    </g>
                </g>
                <path d="M152.204,62.104 C152.702669,62.6480027 152.952,63.3279959 152.952,64.144 C152.952,65.1413383 152.544004,65.9799966 151.728,66.66 C151.047997,67.2040027 150.322671,67.476 149.552,67.476 C148.554662,67.476 147.73867,67.0680041 147.104,66.252 L134.184,50.272 L130.784,53.264 L130.784,63.668 C130.784,64.6653383 130.478003,65.4699969 129.866,66.082 C129.253997,66.6940031 128.449338,67 127.452,67 C126.454662,67 125.650003,66.6940031 125.038,66.082 C124.425997,65.4699969 124.12,64.6653383 124.12,63.668 L124.12,17.224 C124.12,16.2266617 124.425997,15.4220031 125.038,14.81 C125.650003,14.1979969 126.454662,13.892 127.452,13.892 C128.449338,13.892 129.253997,14.1979969 129.866,14.81 C130.478003,15.4220031 130.784,16.2266617 130.784,17.224 L130.784,44.9 L147.308,30.144 C147.897336,29.5546637 148.599996,29.26 149.416,29.26 C150.368005,29.26 151.138664,29.622663 151.728,30.348 C152.317336,30.9373363 152.612,31.6399959 152.612,32.456 C152.612,33.4080048 152.249337,34.1786637 151.524,34.768 L139.012,45.92 L152.204,62.104 Z M176.276,29.532 C179.857351,29.532 183.064652,30.3366586 185.898,31.946 C188.731347,33.5553414 190.952659,35.7879857 192.562,38.644 C194.171341,41.5000143 194.976,44.7639816 194.976,48.436 C194.976,52.0626848 194.182675,55.3039857 192.596,58.16 C191.009325,61.0160143 188.799348,63.2486586 185.966,64.858 C183.132653,66.4673414 179.902685,67.272 176.276,67.272 C172.649315,67.272 169.408014,66.4673414 166.552,64.858 C163.695986,63.2486586 161.474675,61.0160143 159.888,58.16 C158.301325,55.3039857 157.508,52.0626848 157.508,48.436 C157.508,44.7639816 158.301325,41.5000143 159.888,38.644 C161.474675,35.7879857 163.695986,33.5553414 166.552,31.946 C169.408014,30.3366586 172.649315,29.532 176.276,29.532 Z M176.276,35.652 C173.963988,35.652 171.890009,36.1959946 170.054,37.284 C168.217991,38.3720054 166.778672,39.8906569 165.736,41.84 C164.693328,43.7893431 164.172,45.9879878 164.172,48.436 C164.172,50.8840122 164.693328,53.0713237 165.736,54.998 C166.778672,56.9246763 168.217991,58.4319946 170.054,59.52 C171.890009,60.6080054 173.963988,61.152 176.276,61.152 C178.588012,61.152 180.661991,60.6080054 182.498,59.52 C184.334009,58.4319946 185.761995,56.9246763 186.782,54.998 C187.802005,53.0713237 188.312,50.8840122 188.312,48.436 C188.312,45.9879878 187.802005,43.7893431 186.782,41.84 C185.761995,39.8906569 184.334009,38.3720054 182.498,37.284 C180.661991,36.1959946 178.588012,35.652 176.276,35.652 Z M222.176,29.532 C225.666684,29.532 228.828652,30.3593251 231.662,32.014 C234.495347,33.6686749 236.739325,35.9353189 238.394,38.814 C240.048675,41.6926811 240.876,44.8999823 240.876,48.436 L240.876,63.6 C240.876,64.5973383 240.547337,65.4246634 239.89,66.082 C239.232663,66.7393366 238.405338,67.068 237.408,67.068 C236.410662,67.068 235.583337,66.7393366 234.926,66.082 C234.268663,65.4246634 233.94,64.5973383 233.94,63.6 L233.94,61.084 C232.353325,63.0333431 230.426678,64.5519946 228.16,65.64 C225.893322,66.7280054 223.445346,67.272 220.816,67.272 C217.551984,67.272 214.594013,66.4560082 211.942,64.824 C209.289987,63.1919918 207.204674,60.9366811 205.686,58.058 C204.167326,55.1793189 203.408,51.9720177 203.408,48.436 C203.408,44.8999823 204.223992,41.6926811 205.856,38.814 C207.488008,35.9353189 209.743319,33.6686749 212.622,32.014 C215.500681,30.3593251 218.685316,29.532 222.176,29.532 Z M222.176,61.152 C224.442678,61.152 226.493991,60.5966722 228.33,59.486 C230.166009,58.3753278 231.605328,56.8566763 232.648,54.93 C233.690672,53.0033237 234.212,50.8386787 234.212,48.436 C234.212,46.0333213 233.690672,43.8573431 232.648,41.908 C231.605328,39.9586569 230.166009,38.4286722 228.33,37.318 C226.493991,36.2073278 224.442678,35.652 222.176,35.652 C219.909322,35.652 217.858009,36.2073278 216.022,37.318 C214.185991,38.4286722 212.735339,39.9586569 211.67,41.908 C210.604661,43.8573431 210.072,46.0333213 210.072,48.436 C210.072,50.8386787 210.604661,53.0033237 211.67,54.93 C212.735339,56.8566763 214.185991,58.3753278 216.022,59.486 C217.858009,60.5966722 219.909322,61.152 222.176,61.152 Z M264.268,29.532 C267.214681,29.532 269.855322,30.0079952 272.19,30.96 C274.524678,31.9120048 276.371993,33.2266583 277.732,34.904 C278.321336,35.629337 278.616,36.354663 278.616,37.08 C278.616,37.8506705 278.230671,38.5533302 277.46,39.188 C276.961331,39.5506685 276.326671,39.732 275.556,39.732 C274.377327,39.732 273.312005,39.3013376 272.36,38.44 C271.226661,37.3973281 270.02534,36.6606688 268.756,36.23 C267.48666,35.7993312 265.945342,35.584 264.132,35.584 C262.046656,35.584 260.33534,35.9353298 258.998,36.638 C257.66066,37.3406702 256.992,38.3266603 256.992,39.596 C256.992,40.5026712 257.218664,41.2619969 257.672,41.874 C258.125336,42.4860031 258.98666,43.0526641 260.256,43.574 C261.52534,44.0953359 263.361321,44.6053308 265.764,45.104 C270.705358,46.1013383 274.207323,47.4839912 276.27,49.252 C278.332677,51.0200088 279.364,53.3093193 279.364,56.12 C279.364,58.2053438 278.797339,60.0979915 277.664,61.798 C276.530661,63.4980085 274.864678,64.8353285 272.666,65.81 C270.467322,66.7846715 267.826682,67.272 264.744,67.272 C261.661318,67.272 258.760014,66.7960048 256.04,65.844 C253.319986,64.8919952 251.189341,63.645341 249.648,62.104 C249.058664,61.5146637 248.764,60.8120041 248.764,59.996 C248.764,58.9079946 249.217329,58.0240034 250.124,57.344 C250.985338,56.7093302 251.778663,56.392 252.504,56.392 C253.410671,56.392 254.271996,56.7999959 255.088,57.616 C255.949338,58.5680048 257.241325,59.3953298 258.964,60.098 C260.686675,60.8006702 262.522657,61.152 264.472,61.152 C267.056013,61.152 269.061993,60.7213376 270.49,59.86 C271.918007,58.9986624 272.632,57.8426739 272.632,56.392 C272.632,54.9866596 271.92934,53.819338 270.524,52.89 C269.11866,51.960662 266.738683,51.1786698 263.384,50.544 C254.679956,48.8666583 250.328,45.2853608 250.328,39.8 C250.328,37.5786556 250.985327,35.697341 252.3,34.156 C253.614673,32.614659 255.337323,31.4586705 257.468,30.688 C259.598677,29.9173295 261.865321,29.532 264.268,29.532 Z M303.98,60.2 C304.796004,60.2 305.48733,60.5173302 306.054,61.152 C306.62067,61.7866698 306.904,62.6026617 306.904,63.6 C306.904,64.5973383 306.530004,65.4133302 305.782,66.048 C305.033996,66.6826698 304.070673,67 302.892,67 L301.668,67 C299.446656,67 297.418009,66.4220058 295.582,65.266 C293.745991,64.1099942 292.306672,62.5346766 291.264,60.54 C290.221328,58.5453234 289.7,56.3013458 289.7,53.808 L289.7,37.012 L286.572,37.012 C285.619995,37.012 284.849336,36.7400027 284.26,36.196 C283.670664,35.6519973 283.376,34.9720041 283.376,34.156 C283.376,33.2493288 283.670664,32.5240027 284.26,31.98 C284.849336,31.4359973 285.619995,31.164 286.572,31.164 L289.7,31.164 L289.7,21.372 C289.7,20.3746617 290.01733,19.5586698 290.652,18.924 C291.28667,18.2893302 292.102662,17.972 293.1,17.972 C294.097338,17.972 294.91333,18.2893302 295.548,18.924 C296.18267,19.5586698 296.5,20.3746617 296.5,21.372 L296.5,31.164 L302.28,31.164 C303.232005,31.164 304.002664,31.4359973 304.592,31.98 C305.181336,32.5240027 305.476,33.2493288 305.476,34.156 C305.476,34.9720041 305.181336,35.6519973 304.592,36.196 C304.002664,36.7400027 303.232005,37.012 302.28,37.012 L296.5,37.012 L296.5,53.808 C296.5,55.6213424 296.998662,57.1399939 297.996,58.364 C298.993338,59.5880061 300.217326,60.2 301.668,60.2 L303.98,60.2 Z M332.268,29.532 C335.758684,29.532 338.920653,30.3593251 341.754,32.014 C344.587348,33.6686749 346.831325,35.9353189 348.486,38.814 C350.140675,41.6926811 350.968,44.8999823 350.968,48.436 L350.968,63.6 C350.968,64.5973383 350.639337,65.4246634 349.982,66.082 C349.324663,66.7393366 348.497338,67.068 347.5,67.068 C346.502662,67.068 345.675337,66.7393366 345.018,66.082 C344.360663,65.4246634 344.032,64.5973383 344.032,63.6 L344.032,61.084 C342.445325,63.0333431 340.518678,64.5519946 338.252,65.64 C335.985322,66.7280054 333.537346,67.272 330.908,67.272 C327.643984,67.272 324.686013,66.4560082 322.034,64.824 C319.381987,63.1919918 317.296674,60.9366811 315.778,58.058 C314.259326,55.1793189 313.5,51.9720177 313.5,48.436 C313.5,44.8999823 314.315992,41.6926811 315.948,38.814 C317.580008,35.9353189 319.835319,33.6686749 322.714,32.014 C325.592681,30.3593251 328.777316,29.532 332.268,29.532 Z M332.268,61.152 C334.534678,61.152 336.585991,60.5966722 338.422,59.486 C340.258009,58.3753278 341.697328,56.8566763 342.74,54.93 C343.782672,53.0033237 344.304,50.8386787 344.304,48.436 C344.304,46.0333213 343.782672,43.8573431 342.74,41.908 C341.697328,39.9586569 340.258009,38.4286722 338.422,37.318 C336.585991,36.2073278 334.534678,35.652 332.268,35.652 C330.001322,35.652 327.950009,36.2073278 326.114,37.318 C324.277991,38.4286722 322.827339,39.9586569 321.762,41.908 C320.696661,43.8573431 320.164,46.0333213 320.164,48.436 C320.164,50.8386787 320.696661,53.0033237 321.762,54.93 C322.827339,56.8566763 324.277991,58.3753278 326.114,59.486 C327.950009,60.5966722 330.001322,61.152 332.268,61.152 Z" id="koasta"></path>
            </g>
        </g>
    </g>
</svg>
