<?xml version="1.0" encoding="UTF-8"?>
<svg width="121px" height="23px" viewBox="0 0 121 23" version="1.1" xmlns="http://www.w3.org/2000/svg" xmlns:xlink="http://www.w3.org/1999/xlink">
    <!-- Generator: Sketch 49 (51002) - http://www.bohemiancoding.com/sketch -->
    <title>logo-sidebar</title>
    <desc>Created with Sketch.</desc>
    <defs></defs>
    <g id="Home---Sysadmin" stroke="none" stroke-width="1" fill="none" fill-rule="evenodd">
        <g id="Desktop" transform="translate(-22.000000, -23.000000)">
            <g id="Sidebar" transform="translate(22.000000, 18.000000)">
                <g id="logo-sidebar">
                    <g id="Koasta-Logo---Dark" transform="translate(0.000000, 5.000000)" fill="#ffffff">
                        <g id="Shape">
                            <polygon fill-rule="nonzero" points="1.74 23 1.74 19.55 27.26 19.55 27.26 23"></polygon>
                            <polygon fill-rule="nonzero" points="14.5 11.7321884 25.9271037 0.403594203 28.5928963 3.0464058 14.5 17.0178116 0.407103717 3.0464058 3.07289628 0.403594203"></polygon>
                        </g>
                    </g>
                    <path d="M50.072,24.68 C50.2160007,24.8400008 50.288,25.023999 50.288,25.232 C50.288,25.4720012 50.1760011,25.687999 49.952,25.88 C49.759999,26.0240007 49.568001,26.096 49.376,26.096 C49.1199987,26.096 48.9040009,25.9840011 48.728,25.76 L43.784,19.688 L41.984,21.32 L41.984,25.088 C41.984,25.3600014 41.9000008,25.5799992 41.732,25.748 C41.5639992,25.9160008 41.3440014,26 41.072,26 C40.7999986,26 40.5800008,25.9160008 40.412,25.748 C40.2439992,25.5799992 40.16,25.3600014 40.16,25.088 L40.16,8.168 C40.16,7.89599864 40.2439992,7.67600084 40.412,7.508 C40.5800008,7.33999916 40.7999986,7.256 41.072,7.256 C41.3440014,7.256 41.5639992,7.33999916 41.732,7.508 C41.9000008,7.67600084 41.984,7.89599864 41.984,8.168 L41.984,19.088 L48.752,12.968 C48.9280009,12.8079992 49.119999,12.728 49.328,12.728 C49.5680012,12.728 49.7679992,12.823999 49.928,13.016 C50.1040009,13.224001 50.192,13.4159991 50.192,13.592 C50.192,13.8160011 50.088001,14.0159991 49.88,14.192 L45.08,18.536 L50.072,24.68 Z M58.664,12.752 C59.9280063,12.752 61.063995,13.0399971 62.072,13.616 C63.080005,14.1920029 63.8759971,14.9919949 64.46,16.016 C65.0440029,17.0400051 65.336,18.1839937 65.336,19.448 C65.336,20.7120063 65.0480029,21.8519949 64.472,22.868 C63.8959971,23.8840051 63.1000051,24.6799971 62.084,25.256 C61.0679949,25.8320029 59.9280063,26.12 58.664,26.12 C57.3999937,26.12 56.2600051,25.8320029 55.244,25.256 C54.2279949,24.6799971 53.4320029,23.8840051 52.856,22.868 C52.2799971,21.8519949 51.992,20.7120063 51.992,19.448 C51.992,18.1839937 52.2799971,17.0400051 52.856,16.016 C53.4320029,14.9919949 54.2279949,14.1920029 55.244,13.616 C56.2600051,13.0399971 57.3999937,12.752 58.664,12.752 Z M58.664,14.432 C57.7519954,14.432 56.9240037,14.6479978 56.18,15.08 C55.4359963,15.5120022 54.8520021,16.1079962 54.428,16.868 C54.0039979,17.6280038 53.792,18.4879952 53.792,19.448 C53.792,20.3920047 54.0039979,21.2439962 54.428,22.004 C54.8520021,22.7640038 55.4359963,23.3599978 56.18,23.792 C56.9240037,24.2240022 57.7519954,24.44 58.664,24.44 C59.5920046,24.44 60.4239963,24.2240022 61.16,23.792 C61.8960037,23.3599978 62.4719979,22.7640038 62.888,22.004 C63.3040021,21.2439962 63.512,20.3920047 63.512,19.448 C63.512,18.4879952 63.3040021,17.6280038 62.888,16.868 C62.4719979,16.1079962 61.8960037,15.5120022 61.16,15.08 C60.4239963,14.6479978 59.5920046,14.432 58.664,14.432 Z M74.912,12.752 C76.1600062,12.752 77.2919949,13.0439971 78.308,13.628 C79.3240051,14.2120029 80.1239971,15.0159949 80.708,16.04 C81.2920029,17.0640051 81.584,18.1999938 81.584,19.448 L81.584,25.088 C81.584,25.3440013 81.4960009,25.5599991 81.32,25.736 C81.1439991,25.9120009 80.9200014,26 80.648,26 C80.3759986,26 80.1520009,25.9160008 79.976,25.748 C79.7999991,25.5799992 79.712,25.3600014 79.712,25.088 L79.712,23.648 C79.1519972,24.4160038 78.4400043,25.0199978 77.576,25.46 C76.7119957,25.9000022 75.7600052,26.12 74.72,26.12 C73.5039939,26.12 72.4040049,25.8280029 71.42,25.244 C70.4359951,24.6599971 69.6600028,23.8600051 69.092,22.844 C68.5239972,21.8279949 68.24,20.6960062 68.24,19.448 C68.24,18.1999938 68.5319971,17.0640051 69.116,16.04 C69.7000029,15.0159949 70.4999949,14.2120029 71.516,13.628 C72.5320051,13.0439971 73.6639938,12.752 74.912,12.752 Z M74.912,24.44 C75.8240046,24.44 76.6479963,24.2240022 77.384,23.792 C78.1200037,23.3599978 78.6999979,22.7640038 79.124,22.004 C79.5480021,21.2439962 79.76,20.3920047 79.76,19.448 C79.76,18.5039953 79.5480021,17.6520038 79.124,16.892 C78.6999979,16.1319962 78.1200037,15.5320022 77.384,15.092 C76.6479963,14.6519978 75.8240046,14.432 74.912,14.432 C73.9999954,14.432 73.1720037,14.6519978 72.428,15.092 C71.6839963,15.5320022 71.1000021,16.1319962 70.676,16.892 C70.2519979,17.6520038 70.04,18.5039953 70.04,19.448 C70.04,20.3920047 70.2519979,21.2439962 70.676,22.004 C71.1000021,22.7640038 71.6839963,23.3599978 72.428,23.792 C73.1720037,24.2240022 73.9999954,24.44 74.912,24.44 Z M89.72,12.752 C90.7760053,12.752 91.6959961,12.9319982 92.48,13.292 C93.2640039,13.6520018 93.8959976,14.1519968 94.376,14.792 C94.5040006,15.000001 94.568,15.1839992 94.568,15.344 C94.568,15.6160014 94.4400013,15.8319992 94.184,15.992 C94.0719994,16.0720004 93.920001,16.112 93.728,16.112 C93.3919983,16.112 93.1120011,15.9920012 92.888,15.752 C92.1039961,14.8559955 91.0320068,14.408 89.672,14.408 C88.7919956,14.408 88.0880026,14.5879982 87.56,14.948 C87.0319974,15.3080018 86.768,15.7599973 86.768,16.304 C86.768,16.8800029 87.0159975,17.3399983 87.512,17.684 C88.0080025,18.0280017 88.8879937,18.303999 90.152,18.512 C91.8640086,18.8000014 93.0879963,19.2679968 93.824,19.916 C94.5600037,20.5640032 94.928,21.3679952 94.928,22.328 C94.928,23.0640037 94.7080022,23.7199971 94.268,24.296 C93.8279978,24.8720029 93.2160039,25.3199984 92.432,25.64 C91.6479961,25.9600016 90.760005,26.12 89.768,26.12 C88.775995,26.12 87.8240046,25.9520017 86.912,25.616 C85.9999954,25.2799983 85.2640028,24.808003 84.704,24.2 C84.5439992,24.007999 84.464,23.8240009 84.464,23.648 C84.464,23.3759986 84.5919987,23.136001 84.848,22.928 C85.040001,22.7839993 85.239999,22.712 85.448,22.712 C85.7200014,22.712 85.951999,22.8239989 86.144,23.048 C86.5280019,23.4960022 87.0359968,23.8399988 87.668,24.08 C88.3000032,24.3200012 88.9999962,24.44 89.768,24.44 C90.8880056,24.44 91.7279972,24.2480019 92.288,23.864 C92.8480028,23.4799981 93.1359999,22.9760031 93.152,22.352 C93.152,21.7759971 92.8720028,21.2960019 92.312,20.912 C91.7519972,20.5279981 90.8640061,20.240001 89.648,20.048 C88.0799922,19.7919987 86.9080039,19.3480032 86.132,18.716 C85.3559961,18.0839968 84.968,17.3200045 84.968,16.424 C84.968,15.2559942 85.4199955,14.3520032 86.324,13.712 C87.2280045,13.0719968 88.3599932,12.752 89.72,12.752 Z M103.904,24.152 C104.160001,24.152 104.367999,24.2399991 104.528,24.416 C104.688001,24.5920009 104.768,24.8159986 104.768,25.088 C104.768,25.3440013 104.672001,25.5599991 104.48,25.736 C104.287999,25.9120009 104.048001,26 103.76,26 L103.256,26 C102.407996,26 101.648003,25.796002 100.976,25.388 C100.303997,24.979998 99.7800019,24.4280035 99.404,23.732 C99.0279981,23.0359965 98.84,22.2480044 98.84,21.368 L98.84,14.96 L97.28,14.96 C97.0239987,14.96 96.8200008,14.8840008 96.668,14.732 C96.5159992,14.5799992 96.44,14.3920011 96.44,14.168 C96.44,13.9279988 96.5159992,13.7320008 96.668,13.58 C96.8200008,13.4279992 97.0239987,13.352 97.28,13.352 L98.84,13.352 L98.84,9.632 C98.84,9.35999864 98.9239992,9.13600088 99.092,8.96 C99.2600008,8.78399912 99.4799986,8.696 99.752,8.696 C100.024001,8.696 100.247999,8.78399912 100.424,8.96 C100.600001,9.13600088 100.688,9.35999864 100.688,9.632 L100.688,13.352 L103.4,13.352 C103.656001,13.352 103.859999,13.4279992 104.012,13.58 C104.164001,13.7320008 104.24,13.9279988 104.24,14.168 C104.24,14.3920011 104.164001,14.5799992 104.012,14.732 C103.859999,14.8840008 103.656001,14.96 103.4,14.96 L100.688,14.96 L100.688,21.368 C100.688,22.1840041 100.927998,22.8519974 101.408,23.372 C101.888002,23.8920026 102.503996,24.152 103.256,24.152 L103.904,24.152 Z M113.744,12.752 C114.992006,12.752 116.123995,13.0439971 117.14,13.628 C118.156005,14.2120029 118.955997,15.0159949 119.54,16.04 C120.124003,17.0640051 120.416,18.1999938 120.416,19.448 L120.416,25.088 C120.416,25.3440013 120.328001,25.5599991 120.152,25.736 C119.975999,25.9120009 119.752001,26 119.48,26 C119.207999,26 118.984001,25.9160008 118.808,25.748 C118.631999,25.5799992 118.544,25.3600014 118.544,25.088 L118.544,23.648 C117.983997,24.4160038 117.272004,25.0199978 116.408,25.46 C115.543996,25.9000022 114.592005,26.12 113.552,26.12 C112.335994,26.12 111.236005,25.8280029 110.252,25.244 C109.267995,24.6599971 108.492003,23.8600051 107.924,22.844 C107.355997,21.8279949 107.072,20.6960062 107.072,19.448 C107.072,18.1999938 107.363997,17.0640051 107.948,16.04 C108.532003,15.0159949 109.331995,14.2120029 110.348,13.628 C111.364005,13.0439971 112.495994,12.752 113.744,12.752 Z M113.744,24.44 C114.656005,24.44 115.479996,24.2240022 116.216,23.792 C116.952004,23.3599978 117.531998,22.7640038 117.956,22.004 C118.380002,21.2439962 118.592,20.3920047 118.592,19.448 C118.592,18.5039953 118.380002,17.6520038 117.956,16.892 C117.531998,16.1319962 116.952004,15.5320022 116.216,15.092 C115.479996,14.6519978 114.656005,14.432 113.744,14.432 C112.831995,14.432 112.004004,14.6519978 111.26,15.092 C110.515996,15.5320022 109.932002,16.1319962 109.508,16.892 C109.083998,17.6520038 108.872,18.5039953 108.872,19.448 C108.872,20.3920047 109.083998,21.2439962 109.508,22.004 C109.932002,22.7640038 110.515996,23.3599978 111.26,23.792 C112.004004,24.2240022 112.831995,24.44 113.744,24.44 Z" id="koasta" fill="#ffffff"></path>
                </g>
            </g>
        </g>
    </g>
</svg>
