<?xml version="1.0" encoding="UTF-8"?>
<svg width="98px" height="25px" viewBox="0 0 98 25" version="1.1" xmlns="http://www.w3.org/2000/svg" xmlns:xlink="http://www.w3.org/1999/xlink">
    <title>logo-index</title>
    <g id="Home" stroke="none" stroke-width="1" fill="none" fill-rule="evenodd">
        <g id="Desktop-HD" transform="translate(-25.000000, -27.000000)" fill="#FFFFFF" fill-rule="nonzero">
            <g id="Nav">
                <path d="M37.22,51.12 C37.46,51.12 37.7,51.03 37.94,50.85 C38.22,50.61 38.36,50.34 38.36,50.04 C38.36,49.78 38.27,49.55 38.09,49.35 L31.85,41.67 L37.85,36.24 C38.11,36.02 38.24,35.77 38.24,35.49 C38.24,35.27 38.13,35.03 37.91,34.77 C37.71,34.53 37.46,34.41 37.16,34.41 C36.9,34.41 36.66,34.51 36.44,34.71 L27.98,42.36 L27.98,28.71 C27.98,28.37 27.875,28.095 27.665,27.885 C27.455,27.675 27.18,27.57 26.84,27.57 C26.5,27.57 26.225,27.675 26.015,27.885 C25.805,28.095 25.7,28.37 25.7,28.71 L25.7,49.86 C25.7,50.2 25.805,50.475 26.015,50.685 C26.225,50.895 26.5,51 26.84,51 C27.18,51 27.455,50.895 27.665,50.685 C27.875,50.475 27.98,50.2 27.98,49.86 L27.98,45.15 L30.23,43.11 L36.41,50.7 C36.63,50.98 36.9,51.12 37.22,51.12 Z M48.65,51.15 C50.23,51.15 51.655,50.79 52.925,50.07 C54.195,49.35 55.19,48.355 55.91,47.085 C56.63,45.815 56.99,44.39 56.99,42.81 C56.99,41.23 56.625,39.8 55.895,38.52 C55.165,37.24 54.17,36.24 52.91,35.52 C51.65,34.8 50.23,34.44 48.65,34.44 C47.07,34.44 45.645,34.8 44.375,35.52 C43.105,36.24 42.11,37.24 41.39,38.52 C40.67,39.8 40.31,41.23 40.31,42.81 C40.31,44.39 40.67,45.815 41.39,47.085 C42.11,48.355 43.105,49.35 44.375,50.07 C45.645,50.79 47.07,51.15 48.65,51.15 Z M48.65,49.05 C47.51,49.05 46.475,48.78 45.545,48.24 C44.615,47.7 43.885,46.955 43.355,46.005 C42.825,45.055 42.56,43.99 42.56,42.81 C42.56,41.61 42.825,40.535 43.355,39.585 C43.885,38.635 44.615,37.89 45.545,37.35 C46.475,36.81 47.51,36.54 48.65,36.54 C49.81,36.54 50.85,36.81 51.77,37.35 C52.69,37.89 53.41,38.635 53.93,39.585 C54.45,40.535 54.71,41.61 54.71,42.81 C54.71,43.99 54.45,45.055 53.93,46.005 C53.41,46.955 52.69,47.7 51.77,48.24 C50.85,48.78 49.81,49.05 48.65,49.05 Z M68,51.15 C69.3,51.15 70.49,50.875 71.57,50.325 C72.65,49.775 73.54,49.02 74.24,48.06 L74.24,49.86 C74.24,50.2 74.35,50.475 74.57,50.685 C74.79,50.895 75.07,51 75.41,51 C75.75,51 76.03,50.89 76.25,50.67 C76.47,50.45 76.58,50.18 76.58,49.86 L76.58,42.81 C76.58,41.25 76.215,39.83 75.485,38.55 C74.755,37.27 73.755,36.265 72.485,35.535 C71.215,34.805 69.8,34.44 68.24,34.44 C66.68,34.44 65.265,34.805 63.995,35.535 C62.725,36.265 61.725,37.27 60.995,38.55 C60.265,39.83 59.9,41.25 59.9,42.81 C59.9,44.37 60.255,45.785 60.965,47.055 C61.675,48.325 62.645,49.325 63.875,50.055 C65.105,50.785 66.48,51.15 68,51.15 Z M68.24,49.05 C67.1,49.05 66.065,48.78 65.135,48.24 C64.205,47.7 63.475,46.955 62.945,46.005 C62.415,45.055 62.15,43.99 62.15,42.81 C62.15,41.63 62.415,40.565 62.945,39.615 C63.475,38.665 64.205,37.915 65.135,37.365 C66.065,36.815 67.1,36.54 68.24,36.54 C69.38,36.54 70.41,36.815 71.33,37.365 C72.25,37.915 72.975,38.665 73.505,39.615 C74.035,40.565 74.3,41.63 74.3,42.81 C74.3,43.99 74.035,45.055 73.505,46.005 C72.975,46.955 72.25,47.7 71.33,48.24 C70.41,48.78 69.38,49.05 68.24,49.05 Z M86.09,51.15 C87.33,51.15 88.44,50.95 89.42,50.55 C90.4,50.15 91.165,49.59 91.715,48.87 C92.265,48.15 92.54,47.33 92.54,46.41 C92.54,45.21 92.08,44.205 91.16,43.395 C90.24,42.585 88.71,42 86.57,41.64 C84.99,41.38 83.89,41.035 83.27,40.605 C82.65,40.175 82.34,39.6 82.34,38.88 C82.34,38.2 82.67,37.635 83.33,37.185 C83.99,36.735 84.87,36.51 85.97,36.51 C87.67,36.51 89.01,37.07 89.99,38.19 C90.27,38.49 90.62,38.64 91.04,38.64 C91.28,38.64 91.47,38.59 91.61,38.49 C91.93,38.29 92.09,38.02 92.09,37.68 C92.09,37.48 92.01,37.25 91.85,36.99 C91.25,36.19 90.46,35.565 89.48,35.115 C88.5,34.665 87.35,34.44 86.03,34.44 C84.33,34.44 82.915,34.84 81.785,35.64 C80.655,36.44 80.09,37.57 80.09,39.03 C80.09,40.15 80.575,41.105 81.545,41.895 C82.515,42.685 83.98,43.24 85.94,43.56 C87.46,43.8 88.57,44.16 89.27,44.64 C89.97,45.12 90.32,45.72 90.32,46.44 C90.3,47.22 89.94,47.85 89.24,48.33 C88.54,48.81 87.49,49.05 86.09,49.05 C85.13,49.05 84.255,48.9 83.465,48.6 C82.675,48.3 82.04,47.87 81.56,47.31 C81.32,47.03 81.03,46.89 80.69,46.89 C80.43,46.89 80.18,46.98 79.94,47.16 C79.62,47.42 79.46,47.72 79.46,48.06 C79.46,48.28 79.56,48.51 79.76,48.75 C80.46,49.51 81.38,50.1 82.52,50.52 C83.66,50.94 84.85,51.15 86.09,51.15 Z M102.86,51 C103.22,51 103.52,50.89 103.76,50.67 C104,50.45 104.12,50.18 104.12,49.86 C104.12,49.52 104.02,49.24 103.82,49.02 C103.62,48.8 103.36,48.69 103.04,48.69 L102.23,48.69 C101.29,48.69 100.52,48.365 99.92,47.715 C99.32,47.065 99.02,46.23 99.02,45.21 L99.02,37.2 L102.41,37.2 C102.73,37.2 102.985,37.105 103.175,36.915 C103.365,36.725 103.46,36.49 103.46,36.21 C103.46,35.91 103.365,35.665 103.175,35.475 C102.985,35.285 102.73,35.19 102.41,35.19 L99.02,35.19 L99.02,30.54 C99.02,30.2 98.91,29.92 98.69,29.7 C98.47,29.48 98.19,29.37 97.85,29.37 C97.51,29.37 97.235,29.48 97.025,29.7 C96.815,29.92 96.71,30.2 96.71,30.54 L96.71,35.19 L94.76,35.19 C94.44,35.19 94.185,35.285 93.995,35.475 C93.805,35.665 93.71,35.91 93.71,36.21 C93.71,36.49 93.805,36.725 93.995,36.915 C94.185,37.105 94.44,37.2 94.76,37.2 L96.71,37.2 L96.71,45.21 C96.71,46.31 96.945,47.295 97.415,48.165 C97.885,49.035 98.54,49.725 99.38,50.235 C100.22,50.745 101.17,51 102.23,51 L102.86,51 Z M114.38,51.15 C115.68,51.15 116.87,50.875 117.95,50.325 C119.03,49.775 119.92,49.02 120.62,48.06 L120.62,49.86 C120.62,50.2 120.73,50.475 120.95,50.685 C121.17,50.895 121.45,51 121.79,51 C122.13,51 122.41,50.89 122.63,50.67 C122.85,50.45 122.96,50.18 122.96,49.86 L122.96,42.81 C122.96,41.25 122.595,39.83 121.865,38.55 C121.135,37.27 120.135,36.265 118.865,35.535 C117.595,34.805 116.18,34.44 114.62,34.44 C113.06,34.44 111.645,34.805 110.375,35.535 C109.105,36.265 108.105,37.27 107.375,38.55 C106.645,39.83 106.28,41.25 106.28,42.81 C106.28,44.37 106.635,45.785 107.345,47.055 C108.055,48.325 109.025,49.325 110.255,50.055 C111.485,50.785 112.86,51.15 114.38,51.15 Z M114.62,49.05 C113.48,49.05 112.445,48.78 111.515,48.24 C110.585,47.7 109.855,46.955 109.325,46.005 C108.795,45.055 108.53,43.99 108.53,42.81 C108.53,41.63 108.795,40.565 109.325,39.615 C109.855,38.665 110.585,37.915 111.515,37.365 C112.445,36.815 113.48,36.54 114.62,36.54 C115.76,36.54 116.79,36.815 117.71,37.365 C118.63,37.915 119.355,38.665 119.885,39.615 C120.415,40.565 120.68,41.63 120.68,42.81 C120.68,43.99 120.415,45.055 119.885,46.005 C119.355,46.955 118.63,47.7 117.71,48.24 C116.79,48.78 115.76,49.05 114.62,49.05 Z" id="logo-index"></path>
            </g>
        </g>
    </g>
</svg>