<?xml version="1.0" encoding="UTF-8"?>
<svg width="2541px" height="894px" viewBox="0 0 2541 894" version="1.1" xmlns="http://www.w3.org/2000/svg" xmlns:xlink="http://www.w3.org/1999/xlink">
    <title>Group 2</title>
    <defs>
        <linearGradient x1="50%" y1="0%" x2="50%" y2="100%" id="linearGradient-1">
            <stop stop-color="#354066" offset="0%"></stop>
            <stop stop-color="#242C49" offset="52.5522593%"></stop>
            <stop stop-color="#1A1F31" offset="100%"></stop>
        </linearGradient>
        <linearGradient x1="50%" y1="0%" x2="50%" y2="100%" id="linearGradient-2">
            <stop stop-color="#3A3B66" stop-opacity="0.293214598" offset="0%"></stop>
            <stop stop-color="#3C425E" offset="20.8086993%"></stop>
            <stop stop-color="#FFFFFF" offset="85.0691512%"></stop>
            <stop stop-color="#F4F3FD" offset="100%"></stop>
        </linearGradient>
        <path d="M459.402243,267.866709 L607.16349,416.301034 C614.176935,423.346427 614.151037,434.743367 607.105644,441.756812 C603.732371,445.114789 599.166402,447 594.406678,447 L300.071268,447 C290.130143,447 282.071268,438.941125 282.071268,429 C282.071268,424.26542 283.936668,419.721481 287.263345,416.352585 L433.837508,267.91826 C440.822483,260.84464 452.219226,260.772778 459.292846,267.757753 C459.329468,267.793915 459.365933,267.830234 459.402243,267.866709 Z" id="path-3"></path>
        <filter x="-19.7%" y="-58.6%" width="139.3%" height="200.2%" filterUnits="objectBoundingBox" id="filter-4">
            <feOffset dx="0" dy="-8" in="SourceAlpha" result="shadowOffsetOuter1"></feOffset>
            <feGaussianBlur stdDeviation="1" in="shadowOffsetOuter1" result="shadowBlurOuter1"></feGaussianBlur>
            <feComposite in="shadowBlurOuter1" in2="SourceAlpha" operator="out" result="shadowBlurOuter1"></feComposite>
            <feColorMatrix values="0 0 0 0 0.141176471   0 0 0 0 0.17254902   0 0 0 0 0.282352941  0 0 0 1 0" type="matrix" in="shadowBlurOuter1" result="shadowMatrixOuter1"></feColorMatrix>
            <feOffset dx="0" dy="-20" in="SourceAlpha" result="shadowOffsetOuter2"></feOffset>
            <feGaussianBlur stdDeviation="30" in="shadowOffsetOuter2" result="shadowBlurOuter2"></feGaussianBlur>
            <feComposite in="shadowBlurOuter2" in2="SourceAlpha" operator="out" result="shadowBlurOuter2"></feComposite>
            <feColorMatrix values="0 0 0 0 0   0 0 0 0 0   0 0 0 0 0  0 0 0 0.798951049 0" type="matrix" in="shadowBlurOuter2" result="shadowMatrixOuter2"></feColorMatrix>
            <feMerge>
                <feMergeNode in="shadowMatrixOuter1"></feMergeNode>
                <feMergeNode in="shadowMatrixOuter2"></feMergeNode>
            </feMerge>
        </filter>
        <linearGradient x1="50%" y1="0%" x2="50%" y2="100%" id="linearGradient-5">
            <stop stop-color="#3A3B66" stop-opacity="0.293214598" offset="0%"></stop>
            <stop stop-color="#3C425E" offset="20.8086993%"></stop>
            <stop stop-color="#FFFFFF" offset="85.0691512%"></stop>
            <stop stop-color="#F4F3FD" offset="100%"></stop>
        </linearGradient>
        <rect id="path-6" x="351.593878" y="599" width="190" height="41" rx="20.5"></rect>
        <filter x="-52.6%" y="-292.7%" width="205.3%" height="587.8%" filterUnits="objectBoundingBox" id="filter-7">
            <feOffset dx="0" dy="-8" in="SourceAlpha" result="shadowOffsetOuter1"></feOffset>
            <feGaussianBlur stdDeviation="1" in="shadowOffsetOuter1" result="shadowBlurOuter1"></feGaussianBlur>
            <feComposite in="shadowBlurOuter1" in2="SourceAlpha" operator="out" result="shadowBlurOuter1"></feComposite>
            <feColorMatrix values="0 0 0 0 0.141176471   0 0 0 0 0.17254902   0 0 0 0 0.282352941  0 0 0 1 0" type="matrix" in="shadowBlurOuter1" result="shadowMatrixOuter1"></feColorMatrix>
            <feOffset dx="0" dy="-20" in="SourceAlpha" result="shadowOffsetOuter2"></feOffset>
            <feGaussianBlur stdDeviation="30" in="shadowOffsetOuter2" result="shadowBlurOuter2"></feGaussianBlur>
            <feComposite in="shadowBlurOuter2" in2="SourceAlpha" operator="out" result="shadowBlurOuter2"></feComposite>
            <feColorMatrix values="0 0 0 0 0   0 0 0 0 0   0 0 0 0 0  0 0 0 0.798951049 0" type="matrix" in="shadowBlurOuter2" result="shadowMatrixOuter2"></feColorMatrix>
            <feMerge>
                <feMergeNode in="shadowMatrixOuter1"></feMergeNode>
                <feMergeNode in="shadowMatrixOuter2"></feMergeNode>
            </feMerge>
        </filter>
    </defs>
    <g id="Page-1" stroke="none" stroke-width="1" fill="none" fill-rule="evenodd">
        <g id="Group-2">
            <g id="Group-Copy-2">
                <circle id="Oval" fill="url(#linearGradient-1)" cx="447" cy="447" r="447"></circle>
                <g id="Triangle" transform="translate(447.361626, 351.000000) scale(1, -1) translate(-447.361626, -351.000000) ">
                    <use fill="black" fill-opacity="1" filter="url(#filter-4)" xlink:href="#path-3"></use>
                    <path stroke-opacity="0.592684659" stroke="#F3F3FD" stroke-width="8" d="M446.557156,266.565954 C450.135025,266.543394 453.721489,267.88385 456.470852,270.592656 L456.470852,270.592656 L604.328643,419.123026 C607.056094,421.862901 608.414784,425.44891 608.406642,429.031814 C608.3985,432.614717 607.023527,436.194514 604.283652,438.921965 C601.659995,441.533725 598.108686,443 594.406678,443 L594.406678,443 L300.071268,443 C296.205275,443 292.705275,441.432997 290.171773,438.899495 C287.638272,436.365993 286.071268,432.865993 286.071268,429 C286.071268,425.317549 287.522134,421.783374 290.109551,419.163121 L290.109551,419.163121 L436.683713,270.728797 C439.400092,267.977944 442.974315,266.588545 446.557156,266.565954 Z" stroke-linejoin="square" fill="url(#linearGradient-2)" fill-rule="evenodd"></path>
                </g>
                <g id="Rectangle" transform="translate(446.593878, 619.500000) rotate(-180.000000) translate(-446.593878, -619.500000) ">
                    <use fill="black" fill-opacity="1" filter="url(#filter-7)" xlink:href="#path-6"></use>
                    <rect stroke-opacity="0.592684659" stroke="#F3F3FD" stroke-width="8" stroke-linejoin="square" fill="url(#linearGradient-5)" fill-rule="evenodd" x="355.593878" y="603" width="182" height="33" rx="16.5"></rect>
                </g>
            </g>
            <g id="logo_text_light" transform="translate(1118.000000, 275.000000)" fill="#354066" fill-rule="nonzero">
                <path d="M168.54781,344.561069 C172.059223,344.561069 175.570635,343.244275 179.082048,340.610687 C183.178696,337.099237 185.22702,333.148855 185.22702,328.759542 C185.22702,324.955471 183.910241,321.590331 181.276681,318.664122 L181.276681,318.664122 L89.9799506,206.29771 L177.765268,126.851145 C181.569299,123.632316 183.471314,119.974555 183.471314,115.877863 C183.471314,112.659033 181.861917,109.147583 178.643122,105.343511 C175.716944,101.832061 172.059223,100.076336 167.669957,100.076336 C163.865926,100.076336 160.354514,101.53944 157.135719,104.465649 L157.135719,104.465649 L33.3584207,216.39313 L33.3584207,16.6793893 C33.3584207,11.7048346 31.8221777,7.68129771 28.7496915,4.60877863 C25.6772054,1.53625954 21.6537117,0 16.6792104,0 C11.704709,0 7.6812153,1.53625954 4.60872918,4.60877863 C1.53624306,7.68129771 0,11.7048346 0,16.6793893 L0,16.6793893 L0,326.125954 C0,331.100509 1.53624306,335.124046 4.60872918,338.196565 C7.6812153,341.269084 11.704709,342.805344 16.6792104,342.805344 C21.6537117,342.805344 25.6772054,341.269084 28.7496915,338.196565 C31.8221777,335.124046 33.3584207,331.100509 33.3584207,326.125954 L33.3584207,326.125954 L33.3584207,257.21374 L66.2779149,227.366412 L156.696792,338.416031 C159.915587,342.512723 163.865926,344.561069 168.54781,344.561069 Z M335.77884,345 C358.895641,345 379.744654,339.732824 398.325879,329.198473 C416.907105,318.664122 431.464837,304.106234 441.999075,285.524809 C452.533313,266.943384 457.800432,246.094148 457.800432,222.977099 C457.800432,199.860051 452.460158,178.937659 441.779611,160.209924 C431.099064,141.482188 416.541333,126.851145 398.106416,116.316794 C379.671499,105.782443 358.895641,100.515267 335.77884,100.515267 C312.66204,100.515267 291.813027,105.782443 273.231801,116.316794 C254.650576,126.851145 240.092844,141.482188 229.558606,160.209924 C219.024368,178.937659 213.757249,199.860051 213.757249,222.977099 C213.757249,246.094148 219.024368,266.943384 229.558606,285.524809 C240.092844,304.106234 254.650576,318.664122 273.231801,329.198473 C291.813027,339.732824 312.66204,345 335.77884,345 Z M335.77884,314.274809 C319.09963,314.274809 303.956663,310.324427 290.349938,302.423664 C276.743214,294.522901 266.062667,283.622774 258.308297,269.723282 C250.553928,255.823791 246.676743,240.24173 246.676743,222.977099 C246.676743,205.419847 250.553928,189.691476 258.308297,175.791985 C266.062667,161.892494 276.743214,150.992366 290.349938,143.091603 C303.956663,135.19084 319.09963,131.240458 335.77884,131.240458 C352.750668,131.240458 367.96679,135.19084 381.427205,143.091603 C394.887621,150.992366 405.421859,161.892494 413.02992,175.791985 C420.637981,189.691476 424.442011,205.419847 424.442011,222.977099 C424.442011,240.24173 420.637981,255.823791 413.02992,269.723282 C405.421859,283.622774 394.887621,294.522901 381.427205,302.423664 C367.96679,310.324427 352.750668,314.274809 335.77884,314.274809 Z M618.88649,345 C637.906642,345 655.317397,340.976463 671.118754,332.929389 C686.920111,324.882316 699.9416,313.835878 710.18322,299.790076 L710.18322,299.790076 L710.18322,326.125954 C710.18322,331.100509 711.792618,335.124046 715.011413,338.196565 C718.230208,341.269084 722.326856,342.805344 727.301357,342.805344 C732.275859,342.805344 736.372507,341.195929 739.591302,337.977099 C742.810097,334.75827 744.419494,330.807888 744.419494,326.125954 L744.419494,326.125954 L744.419494,222.977099 C744.419494,200.152672 739.079221,179.37659 728.398674,160.648855 C717.718127,141.92112 703.08724,127.216921 684.506015,116.53626 C665.924789,105.855598 645.222085,100.515267 622.397903,100.515267 C599.57372,100.515267 578.871016,105.855598 560.28979,116.53626 C541.708565,127.216921 527.077678,141.92112 516.397131,160.648855 C505.716584,179.37659 500.376311,200.152672 500.376311,222.977099 C500.376311,245.801527 505.570276,266.504453 515.958205,285.085878 C526.346134,303.667303 540.538094,318.298346 558.534084,328.979008 C576.530074,339.659669 596.647543,345 618.88649,345 Z M622.397903,314.274809 C605.718692,314.274809 590.575725,310.324427 576.969001,302.423664 C563.362276,294.522901 552.681729,283.622774 544.92736,269.723282 C537.17299,255.823791 533.295805,240.24173 533.295805,222.977099 C533.295805,205.712468 537.17299,190.130407 544.92736,176.230916 C552.681729,162.331425 563.362276,151.358142 576.969001,143.311069 C590.575725,135.263995 605.718692,131.240458 622.397903,131.240458 C639.077113,131.240458 654.146926,135.263995 667.607341,143.311069 C681.067757,151.358142 691.675149,162.331425 699.429519,176.230916 C707.183889,190.130407 711.061073,205.712468 711.061073,222.977099 C711.061073,240.24173 707.183889,255.823791 699.429519,269.723282 C691.675149,283.622774 681.067757,294.522901 667.607341,302.423664 C654.146926,310.324427 639.077113,314.274809 622.397903,314.274809 Z M883.559223,345 C901.701522,345 917.941805,342.073791 932.280074,336.221374 C946.618343,330.368957 957.810971,322.175573 965.857958,311.641221 C973.904946,301.10687 977.928439,289.109415 977.928439,275.648855 C977.928439,258.091603 971.198232,243.387405 957.737816,231.53626 C944.277401,219.685115 921.892145,211.125954 890.582048,205.858779 C867.465248,202.054707 851.371273,197.006997 842.300123,190.715649 C833.228974,184.4243 828.693399,176.01145 828.693399,165.477099 C828.693399,155.52799 833.521592,147.26145 843.177977,140.677481 C852.834362,134.093511 865.709541,130.801527 881.803516,130.801527 C906.676023,130.801527 926.281411,138.994911 940.619679,155.381679 C944.716327,159.770992 949.837138,161.965649 955.98211,161.965649 C959.493523,161.965649 962.273391,161.234097 964.321715,159.770992 C969.003599,156.844784 971.34454,152.894402 971.34454,147.919847 C971.34454,144.993639 970.17407,141.628499 967.833128,137.824427 C959.054596,126.119593 947.496196,116.975191 933.157927,110.391221 C918.819659,103.807252 901.994139,100.515267 882.68137,100.515267 C857.808863,100.515267 837.106159,106.367684 820.573257,118.072519 C804.040356,129.777354 795.773905,146.310433 795.773905,167.671756 C795.773905,184.058524 802.869885,198.03117 817.061845,209.589695 C831.253804,221.148219 852.688053,229.268448 881.36459,233.950382 C903.603537,237.461832 919.843821,242.729008 930.085441,249.751908 C940.327061,256.774809 945.447872,265.553435 945.447872,276.087786 C945.155254,287.5 939.888135,296.717557 929.646514,303.740458 C919.404894,310.763359 904.042463,314.274809 883.559223,314.274809 C869.513572,314.274809 856.711546,312.080153 845.153146,307.69084 C833.594746,303.301527 824.304133,297.010178 817.281308,288.816794 C813.769895,284.720102 809.526938,282.671756 804.552437,282.671756 C800.748406,282.671756 797.090685,283.98855 793.579272,286.622137 C788.897388,290.426209 786.556447,294.815522 786.556447,299.790076 C786.556447,303.008906 788.019535,306.374046 790.945713,309.885496 C801.187333,321.005089 814.647748,329.637405 831.326959,335.782443 C848.006169,341.927481 865.416924,345 883.559223,345 Z M1128.91919,342.805344 C1134.1863,342.805344 1138.57557,341.195929 1142.08698,337.977099 C1145.5984,334.75827 1147.3541,330.807888 1147.3541,326.125954 C1147.3541,321.151399 1145.89101,317.054707 1142.96484,313.835878 C1140.03866,310.617048 1136.23463,309.007634 1131.55275,309.007634 L1131.55275,309.007634 L1119.70173,309.007634 C1105.94869,309.007634 1094.68291,304.252545 1085.90438,294.742366 C1077.12585,285.232188 1072.73658,273.015267 1072.73658,258.091603 L1072.73658,258.091603 L1072.73658,140.896947 L1122.33529,140.896947 C1127.01717,140.896947 1130.74805,139.506997 1133.52791,136.727099 C1136.30778,133.947201 1137.69772,130.508906 1137.69772,126.412214 C1137.69772,122.022901 1136.30778,118.438295 1133.52791,115.658397 C1130.74805,112.878499 1127.01717,111.48855 1122.33529,111.48855 L1122.33529,111.48855 L1072.73658,111.48855 L1072.73658,43.4541985 C1072.73658,38.4796438 1071.12718,34.3829517 1067.90839,31.1641221 C1064.68959,27.9452926 1060.59295,26.3358779 1055.61845,26.3358779 C1050.64394,26.3358779 1046.62045,27.9452926 1043.54796,31.1641221 C1040.47548,34.3829517 1038.93924,38.4796438 1038.93924,43.4541985 L1038.93924,43.4541985 L1038.93924,111.48855 L1010.40901,111.48855 C1005.72712,111.48855 1001.99625,112.878499 999.216379,115.658397 C996.43651,118.438295 995.046576,122.022901 995.046576,126.412214 C995.046576,130.508906 996.43651,133.947201 999.216379,136.727099 C1001.99625,139.506997 1005.72712,140.896947 1010.40901,140.896947 L1010.40901,140.896947 L1038.93924,140.896947 L1038.93924,258.091603 C1038.93924,274.185751 1042.37749,288.597328 1049.25401,301.326336 C1056.13053,314.055344 1065.71376,324.150763 1078.0037,331.612595 C1090.29365,339.074427 1104.19299,342.805344 1119.70173,342.805344 L1119.70173,342.805344 L1128.91919,342.805344 Z M1297.467,345 C1316.48715,345 1333.8979,340.976463 1349.69926,332.929389 C1365.50062,324.882316 1378.52211,313.835878 1388.76373,299.790076 L1388.76373,299.790076 L1388.76373,326.125954 C1388.76373,331.100509 1390.37312,335.124046 1393.59192,338.196565 C1396.81071,341.269084 1400.90736,342.805344 1405.88186,342.805344 C1410.85636,342.805344 1414.95301,341.195929 1418.17181,337.977099 C1421.3906,334.75827 1423,330.807888 1423,326.125954 L1423,326.125954 L1423,222.977099 C1423,200.152672 1417.65973,179.37659 1406.97918,160.648855 C1396.29863,141.92112 1381.66775,127.216921 1363.08652,116.53626 C1344.5053,105.855598 1323.80259,100.515267 1300.97841,100.515267 C1278.15423,100.515267 1257.45152,105.855598 1238.8703,116.53626 C1220.28907,127.216921 1205.65818,141.92112 1194.97764,160.648855 C1184.29709,179.37659 1178.95682,200.152672 1178.95682,222.977099 C1178.95682,245.801527 1184.15078,266.504453 1194.53871,285.085878 C1204.92664,303.667303 1219.1186,318.298346 1237.11459,328.979008 C1255.11058,339.659669 1275.22805,345 1297.467,345 Z M1300.97841,314.274809 C1284.2992,314.274809 1269.15623,310.324427 1255.54951,302.423664 C1241.94278,294.522901 1231.26224,283.622774 1223.50787,269.723282 C1215.7535,255.823791 1211.87631,240.24173 1211.87631,222.977099 C1211.87631,205.712468 1215.7535,190.130407 1223.50787,176.230916 C1231.26224,162.331425 1241.94278,151.358142 1255.54951,143.311069 C1269.15623,135.263995 1284.2992,131.240458 1300.97841,131.240458 C1317.65762,131.240458 1332.72743,135.263995 1346.18785,143.311069 C1359.64826,151.358142 1370.25565,162.331425 1378.01002,176.230916 C1385.76439,190.130407 1389.64158,205.712468 1389.64158,222.977099 C1389.64158,240.24173 1385.76439,255.823791 1378.01002,269.723282 C1370.25565,283.622774 1359.64826,294.522901 1346.18785,302.423664 C1332.72743,310.324427 1317.65762,314.274809 1300.97841,314.274809 Z" id="koasta"></path>
            </g>
        </g>
    </g>
</svg>